:SAMPLES-PER-SECOND 30
:FULLY-SPECIFIED
:DEGREES
153
root  -53.442 38.7444 4.34807 151.063 81.8762 155.26
RightUpLeg  19.4982 -4.56005 -6.36618
RightLeg  13.496 10.1157 0.387214
RightFoot  -23.1216 0.00453071 1.52732
RightToes  5.82063e-011 0 -3.6325e-017
Spine  6.76002 -0.443035 1.48367
Spine1  12.8025 0.569336 -3.06042
HEad  -19.033 -2.92617 0.702097
LeftShoulder1  0.125718 3.13383 -28.0312
LeftArm  -8.93197 -1.33995 -36.3009
LeftForeArm  59.1445 -78.4192 -61.5841
LeftHand  -0.00502529 2.93435 -0.602958
RightShoulder  -0.274864 -4.31296 26.6416
RightArm  -9.20082 -12.4393 42.246
RightForeArm  64.9176 78.8101 89.6401
RightHand  -0.154602 -1.46603 -4.40064
LeftUpLeg  -18.9646 -0.78057 -0.686685
LeftLeg  15.6282 0.423851 0.635814
LeftFoot  6.25393 0.0171986 -0.272243
LeftToes  1.81573e-012 2.54609e-010 -3.45981e-011
154
root  -52.1242 38.4864 3.9181 138.652 82.6905 144.377
RightUpLeg  20.0543 2.61916 -5.80596
RightLeg  19.749 4.62412 1.52357
RightFoot  -23.3347 0.395839 5.25806
RightToes  5.82063e-011 0 -3.6325e-017
Spine  7.36378 0.0595461 -1.15738
Spine1  13.5022 0.69499 -2.34297
HEad  -18.3225 -2.4632 1.11699
LeftShoulder1  -0.023716 3.57248 -28.6397
LeftArm  -8.82271 -1.44128 -35.9967
LeftForeArm  60.0664 -78.5145 -62.4843
LeftHand  -0.000355942 3.09853 -1.03785
RightShoulder  -0.256777 -4.25881 26.5881
RightArm  -9.04075 -11.9663 42.6028
RightForeArm  60.3734 78.761 85.3986
RightHand  -0.186771 -1.05761 -4.90135
LeftUpLeg  -18.3564 -0.691593 -1.79182
LeftLeg  22.476 1.56824 1.01848
LeftFoot  2.1805 -0.191463 1.50018
LeftToes  1.81573e-012 2.54609e-010 -3.45981e-011
155
root  -50.9262 38.3734 3.44377 131.607 82.2526 138.282
RightUpLeg  17.9337 1.69973 -8.25218
RightLeg  29.4613 4.8299 2.76507
RightFoot  -20.1829 0.694827 11.4705
RightToes  5.82063e-011 0 -3.6325e-017
Spine  8.01565 0.12578 -2.85232
Spine1  13.8767 0.540659 -3.03351
HEad  -17.1622 -2.53431 1.39118
LeftShoulder1  0.091242 3.24031 -28.4659
LeftArm  -9.15307 -0.696967 -36.816
LeftForeArm  58.4026 -78.2954 -60.1385
LeftHand  0.00769962 2.91975 -1.00126
RightShoulder  -0.314056 -4.41932 27.1119
RightArm  -9.2207 -11.7965 42.4883
RightForeArm  57.6924 78.7323 80.9938
RightHand  -0.147993 -1.12558 -3.90859
LeftUpLeg  -16.8708 -1.03806 -3.35151
LeftLeg  25.9629 2.07275 1.44219
LeftFoot  -1.27469 -0.205564 2.39338
LeftToes  1.81573e-012 2.54609e-010 -3.45981e-011
156
root  -49.7738 38.4658 2.98228 118.428 82.8726 125.231
RightUpLeg  12.1005 0.95532 -10.619
RightLeg  41.5256 3.81084 3.23876
RightFoot  -10.8606 -0.0364732 15.6212
RightToes  5.82063e-011 0 -3.6325e-017
Spine  8.51798 0.473251 -3.68987
Spine1  13.1867 0.799341 -4.00196
HEad  -15.5989 -1.84891 0.510462
LeftShoulder1  0.0407184 3.38696 -28.6805
LeftArm  -9.32226 0.314308 -36.8448
LeftForeArm  57.1223 -78.1241 -58.5576
LeftHand  0.00892708 2.60074 -0.987142
RightShoulder  -0.297714 -4.36901 27.1492
RightArm  -8.84667 -11.9073 42.6222
RightForeArm  56.823 78.7068 79.7064
RightHand  -0.133537 -1.38434 -3.69348
LeftUpLeg  -14.8575 0.209293 -4.33973
LeftLeg  26.808 2.62699 1.79331
LeftFoot  -3.95739 -0.128769 2.3533
LeftToes  1.81573e-012 2.54609e-010 -3.45981e-011
157
root  -48.6062 38.6863 2.62567 100.296 83.374 106.972
RightUpLeg  4.21831 1.95685 -11.2744
RightLeg  53.5617 1.76648 2.22233
RightFoot  1.14924 -1.15177 10.3677
RightToes  5.82063e-011 0 -3.6325e-017
Spine  8.53452 0.91979 -5.02771
Spine1  12.7975 1.06676 -3.97231
HEad  -14.0069 -0.960456 -0.22668
LeftShoulder1  -0.0140397 3.54356 -28.5612
LeftArm  -10.0606 1.49314 -36.6286
LeftForeArm  58.976 -78.371 -60.9022
LeftHand  -0.000549293 2.78528 -0.675584
RightShoulder  -0.292608 -4.35745 27.0034
RightArm  -8.40824 -11.4512 43.1382
RightForeArm  58.1174 78.7481 80.7495
RightHand  -0.119055 -1.68736 -3.52156
LeftUpLeg  -12.2351 2.78422 -4.96563
LeftLeg  25.9452 2.25659 1.55033
LeftFoot  -5.94208 -0.0614489 2.06431
LeftToes  1.81573e-012 2.54609e-010 -3.45981e-011
